<svg xmlns="http://www.w3.org/2000/svg" width="500" height="650" viewBox="0 0 500 650"><rect width="100%" height="100%" fill="#292929"/><path fill="#D9D9D9" d="M121.485 358.9h17.54q4.84 0 8.13-1.17 3.29-1.16 5.25-3.09 1.97-1.94 2.84-4.52.87-2.58.87-5.48 0-3.03-.97-5.45-.96-2.42-3.03-4.13-2.06-1.71-5.32-2.61-3.26-.9-7.83-.9h-17.48v27.35Zm14.77-66.31h-14.77v26.96h13.8q8.9 0 13.45-3.23 4.54-3.22 4.54-10.25 0-7.29-4.12-10.38-4.13-3.1-12.9-3.1Zm-32.12-13.42h32.12q9.16 0 15.67 1.74 6.51 1.75 10.67 4.97 4.16 3.23 6.1 7.81 1.93 4.58 1.93 10.32 0 3.29-.96 6.28-.97 3-3 5.62-2.03 2.61-5.16 4.74-3.13 2.13-7.45 3.61 19.22 4.32 19.22 20.77 0 5.93-2.26 10.96-2.26 5.03-6.58 8.68-4.32 3.64-10.64 5.71-6.32 2.06-14.45 2.06h-35.21v-93.27Zm111.71 26.06q7.35 0 13.38 2.39 6.03 2.38 10.32 6.77t6.61 10.71q2.33 6.32 2.33 14.12 0 7.87-2.33 14.19-2.32 6.32-6.61 10.77-4.29 4.45-10.32 6.84-6.03 2.39-13.38 2.39-7.42 0-13.48-2.39-6.06-2.39-10.35-6.84-4.29-4.45-6.65-10.77-2.35-6.32-2.35-14.19 0-7.8 2.35-14.12 2.36-6.32 6.65-10.71 4.29-4.39 10.35-6.77 6.06-2.39 13.48-2.39Zm0 55.92q8.26 0 12.22-5.54 3.97-5.55 3.97-16.26t-3.97-16.32q-3.96-5.61-12.22-5.61-8.39 0-12.42 5.65-4.03 5.64-4.03 16.28t4.03 16.22q4.03 5.58 12.42 5.58Zm74.11-55.92q7.35 0 13.38 2.39 6.03 2.38 10.32 6.77t6.61 10.71q2.33 6.32 2.33 14.12 0 7.87-2.33 14.19-2.32 6.32-6.61 10.77-4.29 4.45-10.32 6.84-6.03 2.39-13.38 2.39-7.42 0-13.48-2.39-6.06-2.39-10.35-6.84-4.29-4.45-6.65-10.77-2.35-6.32-2.35-14.19 0-7.8 2.35-14.12 2.36-6.32 6.65-10.71 4.29-4.39 10.35-6.77 6.06-2.39 13.48-2.39Zm0 55.92q8.26 0 12.22-5.54 3.97-5.55 3.97-16.26t-3.97-16.32q-3.96-5.61-12.22-5.61-8.39 0-12.42 5.65-4.03 5.64-4.03 16.28t4.03 16.22q4.03 5.58 12.42 5.58Zm44.83-84.56h15.93v54.89h2.97q1.61 0 2.54-.42.94-.42 1.91-1.71l16.44-20.31q1.04-1.36 2.29-2.07 1.26-.71 3.26-.71h14.58l-20.58 24.58q-2.19 2.9-4.77 4.45 1.35.97 2.42 2.26 1.06 1.29 2.03 2.77l22.06 32.12h-14.38q-1.88 0-3.23-.61-1.35-.62-2.26-2.23l-16.9-25.09q-.9-1.48-1.87-1.93-.96-.46-2.9-.46h-3.61v30.32h-15.93v-95.85Z"/></svg>